# xmcd
#
# Track frame offsets:
#	150
#	2278
#	15030
#	17377
#	34773
#	36692
#	51598
#	53080
#	70168
#	72909
#	89358
#	91603
#	106738
#	108823
#	122867
#	125114
#	142060
#	144064
#	159231
#	160936
#	176098
#	178794
#
# Disc length: 2645 seconds
#
# Revision: 0
# Processed by: cddbd v1.5.2PL0 Copyright (c) Steve Scherf et al.
# Submitted via: EasyCDDAExtractor 15.3.0.1
#
DISCID=190a5316
DTITLE=Kany Garcia - Contra El Viento
DYEAR=2019
DGENRE=Latin
TTITLE0=Pensamiento De Rozalen
TTITLE1=Asi Voy Yo
TTITLE2=Pensamiento De Mercedes Sosa
TTITLE3=Remamos (Con Natalia Lafourcade)
TTITLE4=Pensamiento De Shela, Mi Madre
TTITLE5=Me Mude
TTITLE6=Pensamiento De Natti Natasha
TTITLE7=Tu Amor Es Como Un Rio
TTITLE8=Pensamiento De Natalia Lafourcade
TTITLE9=Aunque Sea Un Momento
TTITLE10=Pensamiento De Thalia
TTITLE11=Quedate (Con Tommy Torres)
TTITLE12=Pensamiento De Soledad Pastorutti
TTITLE13=La Libreta
TTITLE14=Pensamiento De Anonimo
TTITLE15=Mundo Inventado
TTITLE16=Pensamiento De Lila Downs
TTITLE17=Solo Falta Que Llegues Tu
TTITLE18=Pensamiento De Sofia Vergara
TTITLE19=Vivir Contigo
TTITLE20=Pensamiento De Kany Garcia
TTITLE21=Las Palabras (Con Fito Paez)
EXTD=
EXTT0=
EXTT1=
EXTT2=
EXTT3=
EXTT4=
EXTT5=
EXTT6=
EXTT7=
EXTT8=
EXTT9=
EXTT10=
EXTT11=
EXTT12=
EXTT13=
EXTT14=
EXTT15=
EXTT16=
EXTT17=
EXTT18=
EXTT19=
EXTT20=
EXTT21=
PLAYORDER=
